<svg xmlns="http://www.w3.org/2000/svg" viewBox="0 0 24 24" fill="none" stroke="currentColor" stroke-width="1.5"><path d="M12 15.5a3.5 3.5 0 1 0 0-7 3.5 3.5 0 0 0 0 7z"/><path d="M19.4 15a1.6 1.6 0 0 0 .3 1.8l.1.1a2 2 0 0 1-2.8 2.8l-.1-.1a1.6 1.6 0 0 0-1.8-.3l-.4.2a2 2 0 0 1-2.4-1.4l-.1-.5a1.6 1.6 0 0 0-1.5-1.3h-.5a1.6 1.6 0 0 0-1.5 1.3l-.1.5a2 2 0 0 1-2.4 1.4l-.4-.2a1.6 1.6 0 0 0-1.8.3l-.1.1A2 2 0 0 1 2.3 17.1l.1-.1a1.6 1.6 0 0 0 .3-1.8l-.2-.4a2 2 0 0 1 1.4-2.4l.5-.1a1.6 1.6 0 0 0 1.3-1.5v-.5a1.6 1.6 0 0 0-1.3-1.5l-.5-.1a2 2 0 0 1-1.4-2.4l.2-.4a1.6 1.6 0 0 0-.3-1.8l-.1-.1a2 2 0 0 1 2.8-2.8l.1.1a1.6 1.6 0 0 0 1.8.3l.4-.2a2 2 0 0 1 2.4 1.4l.1.5c.1.6.6 1.1 1.3 1.5h.5c.7-.1 1.2-.6 1.3-1.3l.1-.5a2 2 0 0 1 2.4-1.4l.4.2c.6.3 1.4 0 1.8-.3l.1-.1A2 2 0 0 1 21.7 6.9l-.1.1a1.6 1.6 0 0 0-.3 1.8l.2.4a2 2 0 0 1-1.4 2.4l-.5.1a1.6 1.6 0 0 0-1.3 1.5v.5c.1.6.6 1.1 1.3 1.3l.5.1a2 2 0 0 1 1.4 2.4l-.2.4z"/></svg>